<svg width="16" height="16" viewBox="0 0 16 16" fill="none" xmlns="http://www.w3.org/2000/svg">
<g clip-path="url(#clip0_199_2307)">
<path d="M2 11.333C2 11.8634 2.21071 12.3721 2.58579 12.7472C2.96086 13.1223 3.46957 13.333 4 13.333C4.53043 13.333 5.03914 13.1223 5.41421 12.7472C5.78929 12.3721 6 11.8634 6 11.333C6 10.8026 5.78929 10.2939 5.41421 9.91879C5.03914 9.54372 4.53043 9.33301 4 9.33301C3.46957 9.33301 2.96086 9.54372 2.58579 9.91879C2.21071 10.2939 2 10.8026 2 11.333Z" stroke="white" stroke-linecap="round" stroke-linejoin="round"/>
<path d="M8.6665 11.333C8.6665 11.8634 8.87722 12.3721 9.25229 12.7472C9.62736 13.1223 10.1361 13.333 10.6665 13.333C11.1969 13.333 11.7056 13.1223 12.0807 12.7472C12.4558 12.3721 12.6665 11.8634 12.6665 11.333C12.6665 10.8026 12.4558 10.2939 12.0807 9.91879C11.7056 9.54372 11.1969 9.33301 10.6665 9.33301C10.1361 9.33301 9.62736 9.54372 9.25229 9.91879C8.87722 10.2939 8.6665 10.8026 8.6665 11.333Z" stroke="white" stroke-linecap="round" stroke-linejoin="round"/>
<path d="M6 11.3337V2.66699H12.6667V11.3337" stroke="white" stroke-linecap="round" stroke-linejoin="round"/>
<path d="M6 5.33301H12.6667" stroke="white" stroke-linecap="round" stroke-linejoin="round"/>
</g>
<defs>
<clipPath id="clip0_199_2307">
<rect width="16" height="16" fill="white"/>
</clipPath>
</defs>
</svg>
